<svg xmlns="http://www.w3.org/2000/svg" xmlns:xlink="http://www.w3.org/1999/xlink" width="480" height="672" preserveAspectRatio="none" version="1.0" viewBox="0 0 360 504" zoomAndPan="magnify"><defs><clipPath id="fe28bec69e"><path d="M 0 116 L 360 116 L 360 414 L 0 414 Z M 0 116" clip-rule="nonzero"/></clipPath><clipPath id="ddd00ee93a"><path d="M 440.460938 116.246094 L 456.6875 147.539062 L -55.980469 413.390625 L -72.207031 382.097656 Z M 440.460938 116.246094" clip-rule="nonzero"/></clipPath><clipPath id="446c8964dc"><path d="M 0 129 L 360 129 L 360 438 L 0 438 Z M 0 129" clip-rule="nonzero"/></clipPath><clipPath id="2bab4e6a0a"><path d="M 490.296875 129.496094 L 508.25 164.117188 L -19.734375 437.910156 L -37.6875 403.289062 Z M 490.296875 129.496094" clip-rule="nonzero"/></clipPath><clipPath id="288bef5133"><path d="M 0 490.496094 L 360 490.496094 L 360 504 L 0 504 Z M 0 490.496094" clip-rule="nonzero"/></clipPath><clipPath id="04dc6e542b"><path d="M 0 0 L 360 0 L 360 15.957031 L 0 15.957031 Z M 0 0" clip-rule="nonzero"/></clipPath><clipPath id="75d16a11db"><path d="M 0 52 L 360 52 L 360 369 L 0 369 Z M 0 52" clip-rule="nonzero"/></clipPath><clipPath id="dd1cbdb52a"><path d="M 391.214844 52.292969 L 418.488281 104.890625 L -90.1875 368.667969 L -117.460938 316.070312 Z M 391.214844 52.292969" clip-rule="nonzero"/></clipPath><clipPath id="94869fe216"><path d="M 0 93 L 360 93 L 360 410 L 0 410 Z M 0 93" clip-rule="nonzero"/></clipPath><clipPath id="bf445cf664"><path d="M 438.703125 93.957031 L 464.253906 143.226562 L -48.417969 409.078125 L -73.96875 359.808594 Z M 438.703125 93.957031" clip-rule="nonzero"/></clipPath><clipPath id="b5f64028ee"><path d="M 0 125 L 360 125 L 360 452 L 0 452 Z M 0 125" clip-rule="nonzero"/></clipPath><clipPath id="d5fa7f2012"><path d="M 497.871094 125.207031 L 525.148438 177.804688 L -2.835938 451.59375 L -30.109375 398.996094 Z M 497.871094 125.207031" clip-rule="nonzero"/></clipPath></defs><rect width="432" height="604.8" x="-36" y="-50.4" fill="#fff" fill-opacity="1"/><rect width="432" height="604.8" x="-36" y="-50.4" fill="#fff" fill-opacity="1"/><rect width="432" height="604.8" x="-36" y="-50.4" fill="#795548" fill-opacity="1"/><g clip-path="url(#fe28bec69e)"><g clip-path="url(#ddd00ee93a)"><path fill="#411e1c" fill-opacity="1" fill-rule="nonzero" d="M 440.445312 116.257812 L 456.671875 147.550781 L -55.964844 413.378906 L -72.191406 382.085938 L 440.445312 116.257812"/></g></g><g clip-path="url(#446c8964dc)"><g clip-path="url(#2bab4e6a0a)"><path fill="#280000" fill-opacity="1" fill-rule="nonzero" d="M 490.246094 129.523438 L 508.199219 164.144531 L -19.683594 437.882812 L -37.636719 403.261719 L 490.246094 129.523438"/></g></g><g clip-path="url(#288bef5133)"><path fill="#795548" fill-opacity="1" fill-rule="nonzero" d="M 477.367188 490.496094 L 477.367188 551.246094 L -117.371094 551.246094 L -117.371094 490.496094 L 477.367188 490.496094"/></g><g clip-path="url(#04dc6e542b)"><path fill="#795548" fill-opacity="1" fill-rule="nonzero" d="M 509.191406 -10.292969 L 509.191406 15.957031 L -85.34375 15.957031 L -85.34375 -10.292969 L 509.191406 -10.292969"/></g><g clip-path="url(#75d16a11db)"><g clip-path="url(#dd1cbdb52a)"><path fill="#4f2b26" fill-opacity="1" fill-rule="nonzero" d="M 391.183594 52.308594 L 418.457031 104.90625 L -90.152344 368.652344 L -117.429688 316.054688 L 391.183594 52.308594"/></g></g><g clip-path="url(#94869fe216)"><g clip-path="url(#bf445cf664)"><path fill="#411e1c" fill-opacity="1" fill-rule="nonzero" d="M 438.683594 93.96875 L 464.230469 143.238281 L -48.398438 409.066406 L -73.945312 359.796875 L 438.683594 93.96875"/></g></g><g clip-path="url(#b5f64028ee)"><g clip-path="url(#d5fa7f2012)"><path fill="#280000" fill-opacity="1" fill-rule="nonzero" d="M 497.847656 125.21875 L 525.121094 177.820312 L -2.808594 451.582031 L -30.085938 398.984375 L 497.847656 125.21875"/></g></g></svg>