<svg xmlns="http://www.w3.org/2000/svg" id="visual" width="900" height="900" opacity=".5" preserveAspectRatio="none" version="1.1" viewBox="0 0 900 900"><g><path fill="#8a6a5e" d="M141.1 -240.1C188.4 -217.1 236.2 -190.5 276 -149.9C315.7 -109.3 347.4 -54.7 344.3 -1.8C341.3 51.2 303.6 102.3 277.9 167.3C252.2 232.2 238.6 311 194.3 342.2C150 373.5 75 357.2 4.1 350.2C-66.8 343.1 -133.7 345.2 -196.6 324.7C-259.5 304.2 -318.6 261.1 -349.6 203.2C-380.7 145.3 -383.9 72.7 -374.6 5.3C-365.4 -62 -343.8 -124 -303.3 -165.6C-262.8 -207.1 -203.4 -228.3 -149.7 -247.6C-96 -266.9 -48 -284.5 -0.6 -283.5C46.9 -282.5 93.8 -263.1 141.1 -240.1" transform="translate(467.3385691803812 411.4088168981838)"/></g></svg>