<svg id="visual" viewBox="0 0 900 600" width="900" height="600" xmlns="http://www.w3.org/2000/svg" xmlns:xlink="http://www.w3.org/1999/xlink" version="1.1" preserveAspectRatio="none"><rect x="0" y="0" width="900" height="600" fill="#2b5b96"></rect><path d="M0 283L129 236L257 240L386 242L514 289L643 274L771 284L900 300L900 601L771 601L643 601L514 601L386 601L257 601L129 601L0 601Z" fill="#132740"></path><path d="M0 255L129 351L257 351L386 272L514 338L643 295L771 239L900 296L900 601L771 601L643 601L514 601L386 601L257 601L129 601L0 601Z" fill="#002959"></path><path d="M0 322L129 337L257 333L386 367L514 351L643 386L771 359L900 410L900 601L771 601L643 601L514 601L386 601L257 601L129 601L0 601Z" fill="#002970"></path><path d="M0 485L129 487L257 445L386 434L514 453L643 403L771 441L900 471L900 601L771 601L643 601L514 601L386 601L257 601L129 601L0 601Z" fill="#232383"></path><path d="M0 511L129 531L257 492L386 545L514 483L643 481L771 496L900 536L900 601L771 601L643 601L514 601L386 601L257 601L129 601L0 601Z" fill="#471091"></path></svg>