<svg id="visual" viewBox="0 0 900 600" width="900" height="600" xmlns="http://www.w3.org/2000/svg" xmlns:xlink="http://www.w3.org/1999/xlink" version="1.1" preserveAspectRatio="none"><rect x="0" y="0" width="900" height="600" fill="#795548"></rect><path d="M0 260L90 316L180 338L270 314L360 335L450 189L540 232L630 217L720 266L810 329L900 272L900 601L810 601L720 601L630 601L540 601L450 601L360 601L270 601L180 601L90 601L0 601Z" fill="#795548"></path><path d="M0 245L90 279L180 256L270 263L360 350L450 322L540 243L630 246L720 258L810 356L900 357L900 601L810 601L720 601L630 601L540 601L450 601L360 601L270 601L180 601L90 601L0 601Z" fill="#6b473c"></path><path d="M0 310L90 358L180 386L270 292L360 367L450 368L540 285L630 366L720 344L810 276L900 313L900 601L810 601L720 601L630 601L540 601L450 601L360 601L270 601L180 601L90 601L0 601Z" fill="#5d3931"></path><path d="M0 405L90 401L180 391L270 329L360 381L450 427L540 341L630 385L720 402L810 400L900 406L900 601L810 601L720 601L630 601L540 601L450 601L360 601L270 601L180 601L90 601L0 601Z" fill="#4f2b26"></path><path d="M0 444L90 454L180 474L270 445L360 415L450 424L540 469L630 456L720 490L810 484L900 431L900 601L810 601L720 601L630 601L540 601L450 601L360 601L270 601L180 601L90 601L0 601Z" fill="#411e1c"></path><path d="M0 443L90 498L180 479L270 503L360 474L450 493L540 492L630 518L720 461L810 491L900 481L900 601L810 601L720 601L630 601L540 601L450 601L360 601L270 601L180 601L90 601L0 601Z" fill="#331011"></path><path d="M0 517L90 516L180 511L270 555L360 555L450 522L540 535L630 551L720 501L810 516L900 545L900 601L810 601L720 601L630 601L540 601L450 601L360 601L270 601L180 601L90 601L0 601Z" fill="#280000"></path></svg>