<svg xmlns="http://www.w3.org/2000/svg" fill="#000000" xmlns:xlink="http://www.w3.org/1999/xlink" width="500" zoomAndPan="magnify" viewBox="0 0 375 374.999991" height="500" preserveAspectRatio="xMidYMid meet" version="1.0">
  <defs>
    <g></g>
    <clipPath id="45692e4d45">
      <path d="M 58 0 L 375 0 L 375 375 L 58 375 Z M 58 0 " clip-rule="nonzero"></path>
    </clipPath>
    <clipPath id="4615babcb8">
      <path d="M 221.078125 -48.890625 L 494 49.894531 L 331.398438 499.125 L 58.476562 400.335938 Z M 221.078125 -48.890625 " clip-rule="nonzero"></path>
    </clipPath>
    <clipPath id="73cecbf5a1">
      <path d="M 105 0 L 375 0 L 375 375 L 105 375 Z M 105 0 " clip-rule="nonzero"></path>
    </clipPath>
    <clipPath id="4d6dc3ba60">
      <path d="M 267.933594 -36.890625 L 540.855469 61.894531 L 378.253906 511.125 L 105.332031 412.335938 Z M 267.933594 -36.890625 " clip-rule="nonzero"></path>
    </clipPath>
    <clipPath id="d93c3fb4d6">
      <path d="M 145 0 L 375 0 L 375 375 L 145 375 Z M 145 0 " clip-rule="nonzero"></path>
    </clipPath>
    <clipPath id="be73cd7107">
      <path d="M 307.789062 -24.890625 L 580.710938 73.894531 L 418.109375 523.125 L 145.1875 424.335938 Z M 307.789062 -24.890625 " clip-rule="nonzero"></path>
    </clipPath>
  </defs>
  <rect x="-37.5" width="450" fill="#ffffff" y="-37.499999" height="449.999989" fill-opacity="1"></rect>
  <rect x="-37.5" width="450" fill="#ffffff" y="-37.499999" height="449.999989" fill-opacity="1"></rect>
  <path fill="#ffffff" d="M 233.085938 260.460938 L 114.460938 260.460938 L 114.460938 141.835938 C 114.460938 136.816406 110.355469 132.710938 105.335938 132.710938 C 100.316406 132.710938 96.210938 136.816406 96.210938 141.835938 L 96.210938 260.460938 C 96.210938 270.496094 104.421875 278.710938 114.460938 278.710938 L 233.085938 278.710938 C 238.105469 278.710938 242.210938 274.605469 242.210938 269.585938 C 242.210938 264.566406 238.105469 260.460938 233.085938 260.460938 Z M 233.085938 260.460938 " fill-opacity="1" fill-rule="nonzero"></path>
  <path fill="#ffffff" d="M 260.460938 96.210938 L 150.960938 96.210938 C 140.921875 96.210938 132.710938 104.421875 132.710938 114.460938 L 132.710938 223.960938 C 132.710938 233.996094 140.921875 242.210938 150.960938 242.210938 L 260.460938 242.210938 C 270.496094 242.210938 278.710938 233.996094 278.710938 223.960938 L 278.710938 114.460938 C 278.710938 104.421875 270.496094 96.210938 260.460938 96.210938 Z M 260.460938 96.210938 " fill-opacity="1" fill-rule="nonzero"></path>
  <g fill="#4f2b26" fill-opacity="1">
    <g transform="translate(170.205593, 206.921763)">
      <g>
        <path d="M 53 -75.710938 L 34.953125 -21.578125 L 16.910156 -75.710938 L -1.640625 -75.710938 L 25.617188 0 L 44.292969 0 L 71.546875 -75.710938 Z M 53 -75.710938 "></path>
      </g>
    </g>
  </g>
</svg>
