<svg xmlns="http://www.w3.org/2000/svg" xmlns:xlink="http://www.w3.org/1999/xlink" width="500" height="500" preserveAspectRatio="xMidYMid meet" version="1.0" viewBox="0 0 375 375" zoomAndPan="magnify"><path fill="#000" fill-opacity="1" fill-rule="nonzero" d="M 233.085938 260.460938 L 114.460938 260.460938 L 114.460938 141.835938 C 114.460938 136.816406 110.355469 132.710938 105.335938 132.710938 C 100.316406 132.710938 96.210938 136.816406 96.210938 141.835938 L 96.210938 260.460938 C 96.210938 270.496094 104.421875 278.710938 114.460938 278.710938 L 233.085938 278.710938 C 238.105469 278.710938 242.210938 274.605469 242.210938 269.585938 C 242.210938 264.566406 238.105469 260.460938 233.085938 260.460938 Z M 233.085938 260.460938"/><path fill="#000" fill-opacity="1" fill-rule="nonzero" d="M 260.460938 96.210938 L 150.960938 96.210938 C 140.921875 96.210938 132.710938 104.421875 132.710938 114.460938 L 132.710938 223.960938 C 132.710938 233.996094 140.921875 242.210938 150.960938 242.210938 L 260.460938 242.210938 C 270.496094 242.210938 278.710938 233.996094 278.710938 223.960938 L 278.710938 114.460938 C 278.710938 104.421875 270.496094 96.210938 260.460938 96.210938 Z M 260.460938 96.210938"/><g fill="#fff" fill-opacity="1"><g><g><path d="M 53 -75.710938 L 34.953125 -21.578125 L 16.910156 -75.710938 L -1.640625 -75.710938 L 25.617188 0 L 44.292969 0 L 71.546875 -75.710938 Z M 53 -75.710938" transform="translate(170.205593, 206.921763)"/></g></g></g></svg>