<svg id="visual" viewBox="0 0 900 600" width="900" height="600" xmlns="http://www.w3.org/2000/svg" xmlns:xlink="http://www.w3.org/1999/xlink" version="1.1" preserveAspectRatio="none"><rect x="0" y="0" width="900" height="600" fill="#795548"></rect><path d="M0 183L100 183L100 181L200 181L200 215L300 215L300 127L400 127L400 191L500 191L500 178L600 178L600 187L700 187L700 135L800 135L800 149L900 149L900 149L900 601L900 601L800 601L800 601L700 601L700 601L600 601L600 601L500 601L500 601L400 601L400 601L300 601L300 601L200 601L200 601L100 601L100 601L0 601Z" fill="#795548"></path><path d="M0 278L100 278L100 257L200 257L200 215L300 215L300 253L400 253L400 252L500 252L500 230L600 230L600 268L700 268L700 222L800 222L800 265L900 265L900 227L900 601L900 601L800 601L800 601L700 601L700 601L600 601L600 601L500 601L500 601L400 601L400 601L300 601L300 601L200 601L200 601L100 601L100 601L0 601Z" fill="#6b473c"></path><path d="M0 317L100 317L100 272L200 272L200 322L300 322L300 355L400 355L400 273L500 273L500 292L600 292L600 270L700 270L700 331L800 331L800 294L900 294L900 284L900 601L900 601L800 601L800 601L700 601L700 601L600 601L600 601L500 601L500 601L400 601L400 601L300 601L300 601L200 601L200 601L100 601L100 601L0 601Z" fill="#5d3931"></path><path d="M0 405L100 405L100 335L200 335L200 352L300 352L300 366L400 366L400 328L500 328L500 318L600 318L600 375L700 375L700 389L800 389L800 334L900 334L900 337L900 601L900 601L800 601L800 601L700 601L700 601L600 601L600 601L500 601L500 601L400 601L400 601L300 601L300 601L200 601L200 601L100 601L100 601L0 601Z" fill="#4f2b26"></path><path d="M0 387L100 387L100 456L200 456L200 390L300 390L300 421L400 421L400 451L500 451L500 400L600 400L600 457L700 457L700 391L800 391L800 385L900 385L900 434L900 601L900 601L800 601L800 601L700 601L700 601L600 601L600 601L500 601L500 601L400 601L400 601L300 601L300 601L200 601L200 601L100 601L100 601L0 601Z" fill="#411e1c"></path><path d="M0 506L100 506L100 456L200 456L200 475L300 475L300 503L400 503L400 440L500 440L500 450L600 450L600 489L700 489L700 454L800 454L800 445L900 445L900 473L900 601L900 601L800 601L800 601L700 601L700 601L600 601L600 601L500 601L500 601L400 601L400 601L300 601L300 601L200 601L200 601L100 601L100 601L0 601Z" fill="#331011"></path><path d="M0 537L100 537L100 550L200 550L200 501L300 501L300 538L400 538L400 531L500 531L500 519L600 519L600 548L700 548L700 499L800 499L800 518L900 518L900 556L900 601L900 601L800 601L800 601L700 601L700 601L600 601L600 601L500 601L500 601L400 601L400 601L300 601L300 601L200 601L200 601L100 601L100 601L0 601Z" fill="#280000"></path></svg>